<svg width="32" height="32" viewBox="0 0 32 32" fill="none" xmlns="http://www.w3.org/2000/svg">
<path d="M28.9996 27.5861L21.4476 20.0341C23.2624 17.8554 24.1674 15.061 23.9743 12.232C23.7812 9.40309 22.5049 6.75751 20.4109 4.84563C18.3169 2.93376 15.5664 1.90279 12.7316 1.9672C9.8968 2.03161 7.19598 3.18644 5.19097 5.19146C3.18596 7.19647 2.03112 9.89729 1.96671 12.7321C1.9023 15.5669 2.93327 18.3173 4.84514 20.4114C6.75702 22.5054 9.4026 23.7817 12.2315 23.9748C15.0605 24.1679 17.8549 23.2629 20.0336 21.4481L27.5856 29.0001L28.9996 27.5861ZM3.99963 13.0001C3.99963 11.2201 4.52747 9.48003 5.5164 7.99998C6.50533 6.51994 7.91094 5.36639 9.55548 4.6852C11.2 4.00401 13.0096 3.82578 14.7554 4.17305C16.5013 4.52032 18.1049 5.37748 19.3636 6.63615C20.6223 7.89483 21.4794 9.49847 21.8267 11.2443C22.174 12.9901 21.9957 14.7997 21.3145 16.4443C20.6334 18.0888 19.4798 19.4944 17.9998 20.4833C16.5197 21.4723 14.7797 22.0001 12.9996 22.0001C10.6135 21.9975 8.32584 21.0484 6.63859 19.3612C4.95134 17.6739 4.00227 15.3863 3.99963 13.0001Z" fill="#112A09"/>
</svg>
